# This file uses centimeters as units for non-parametric coordinates.

mtllib hook.mtl
g default
v -4.091942 -10.268074 0.598483
v 1.363731 -8.170860 0.000000
v -0.718941 -5.663483 0.000000
v -3.407814 -10.053295 0.000000
v -2.566765 -11.973740 0.000000
v -0.588295 -12.748840 0.000000
v 1.390175 -11.973740 0.000000
v 2.209663 -10.102482 0.000000
v -0.718941 -2.522957 0.000000
v 2.609642 -7.461967 0.000000
v 0.718948 -5.174393 0.000000
v -4.535713 -11.031612 0.000000
v -3.667290 -13.014622 0.000000
v -0.588295 -14.220871 0.000000
v 2.490685 -13.014622 0.000000
v 3.766037 -10.102482 0.000000
v 0.718948 -2.522957 0.000000
v -3.407814 -6.372658 0.000000
v -5.597481 -11.329967 0.000000
v -0.646530 0.000000 0.000000
v 0.646553 0.000000 0.000000
v -1.012276 -1.365242 0.000000
v 1.012299 -1.365242 0.000000
v -0.718941 -2.828217 0.000000
v -0.718941 -4.696350 0.000000
v 0.718948 -2.828217 0.000000
v 0.718948 -4.696350 0.000000
v -0.872589 -4.534111 0.000000
v -0.872589 -2.990456 0.000000
v 0.872612 -4.534111 0.000000
v 0.872612 -2.990456 0.000000
v 0.000000 0.000000 0.000000
v 0.000000 -0.000008 0.598483
v 0.000000 -1.365242 0.598483
v 0.000000 -2.483215 0.598483
v 0.000015 -2.828217 0.598483
v 0.000015 -2.990456 0.774107
v 0.000015 -4.534111 0.774107
v 0.000000 -4.696350 0.598483
v 0.000000 -5.418938 0.598483
v 1.986679 -7.816414 0.598483
v 2.987854 -10.102482 0.598483
v 1.940422 -12.494183 0.598483
v -0.588295 -13.484856 0.598483
v -3.117027 -12.494183 0.598483
v -4.091942 -10.268074 -0.598483
v 0.000000 -0.000008 -0.598483
v 0.000000 -1.365242 -0.598483
v 0.000000 -2.483215 -0.598483
v 0.000015 -2.828217 -0.598483
v 0.000015 -2.990456 -0.774107
v 0.000015 -4.534111 -0.774107
v 0.000000 -4.696350 -0.598483
v 0.000000 -5.418938 -0.598483
v 1.986679 -7.816414 -0.598483
v 2.987854 -10.102482 -0.598483
v 1.940422 -12.494183 -0.598483
v -0.588295 -13.484856 -0.598483
v -3.117027 -12.494183 -0.598483
vt 0.334794 0.376561
vt 0.299808 0.419837
vt 0.283052 0.413584
vt 0.319828 0.367514
vt 0.202707 0.250256
vt 0.205052 0.230277
vt 0.242216 0.213666
vt 0.244880 0.231555
vt 0.303373 0.225656
vt 0.295123 0.241396
vt 0.348063 0.269125
vt 0.331826 0.277097
vt 0.359165 0.328022
vt 0.340943 0.325469
vt 0.211660 0.265416
vt 0.162921 0.314327
vt 0.269657 0.512751
vt 0.272862 0.489218
vt 0.294298 0.493933
vt 0.283379 0.519149
vt 0.293226 0.471151
vt 0.275547 0.468392
vt 0.268459 0.521544
vt 0.190248 0.216013
vt 0.301778 0.432176
vt 0.298223 0.462738
vt 0.276597 0.458053
vt 0.280996 0.431196
vt 0.294698 0.465756
vt 0.276271 0.461785
vt 0.299404 0.428374
vt 0.281299 0.427440
vt 0.254720 0.515253
vt 0.250958 0.488043
vt 0.258123 0.466477
vt 0.258256 0.460868
vt 0.255891 0.457026
vt 0.259549 0.426464
vt 0.263113 0.423477
vt 0.266650 0.405959
vt 0.304944 0.358506
vt 0.322727 0.322920
vt 0.315589 0.285069
vt 0.286872 0.257134
vt 0.247561 0.249391
vt 0.334794 0.376561
vt 0.319828 0.367514
vt 0.283052 0.413584
vt 0.299808 0.419837
vt 0.202707 0.250256
vt 0.244880 0.231555
vt 0.242216 0.213666
vt 0.205052 0.230277
vt 0.295123 0.241396
vt 0.303373 0.225656
vt 0.331826 0.277097
vt 0.348063 0.269125
vt 0.340943 0.325469
vt 0.359165 0.328022
vt 0.162921 0.314327
vt 0.211660 0.265416
vt 0.269657 0.512751
vt 0.283379 0.519149
vt 0.294298 0.493933
vt 0.272862 0.489218
vt 0.293226 0.471151
vt 0.275547 0.468392
vt 0.268459 0.521544
vt 0.190248 0.216013
vt 0.301778 0.432176
vt 0.280996 0.431196
vt 0.276597 0.458053
vt 0.298223 0.462738
vt 0.294698 0.465756
vt 0.276271 0.461785
vt 0.281299 0.427440
vt 0.299404 0.428374
vt 0.254720 0.515253
vt 0.250958 0.488043
vt 0.258123 0.466477
vt 0.258256 0.460868
vt 0.255891 0.457026
vt 0.259549 0.426464
vt 0.263113 0.423477
vt 0.266650 0.405959
vt 0.304944 0.358506
vt 0.322727 0.322920
vt 0.315589 0.285069
vt 0.286872 0.257134
vt 0.247561 0.249391
vn 0.513674 0.402084 0.757936
vn 0.513674 0.402084 0.757936
vn 0.513674 0.402084 0.757936
vn 0.513674 0.402084 0.757936
vn -0.604866 -0.250542 0.755887
vn -0.604866 -0.250542 0.755887
vn -0.604866 -0.250542 0.755887
vn -0.604866 -0.250542 0.755887
vn -0.250543 -0.604865 0.755888
vn -0.250543 -0.604865 0.755888
vn -0.250543 -0.604865 0.755888
vn -0.250543 -0.604865 0.755888
vn 0.250543 -0.604864 0.755889
vn 0.250543 -0.604864 0.755889
vn 0.250543 -0.604864 0.755889
vn 0.250543 -0.604864 0.755889
vn 0.604862 -0.250543 0.755890
vn 0.604862 -0.250543 0.755890
vn 0.604862 -0.250543 0.755890
vn 0.604862 -0.250543 0.755890
vn 0.604864 0.250543 0.755889
vn 0.604864 0.250543 0.755889
vn 0.604864 0.250543 0.755889
vn 0.604864 0.250543 0.755889
vn 0.673135 0.000000 0.739520
vn 0.673135 0.000000 0.739520
vn 0.673135 0.000000 0.739520
vn 0.598662 0.075846 0.797403
vn 0.598662 0.075846 0.797403
vn 0.598662 0.075846 0.797403
vn 0.598662 0.075846 0.797403
vn 0.581365 -0.070882 0.810549
vn 0.581365 -0.070882 0.810549
vn 0.581365 -0.070882 0.810549
vn 0.581365 -0.070882 0.810549
vn 0.000000 1.000000 0.000003
vn 0.000000 1.000000 0.000003
vn 0.000000 1.000000 0.000003
vn 0.197418 -0.664486 0.720753
vn 0.197418 -0.664486 0.720753
vn 0.197418 -0.664486 0.720753
vn -0.503460 0.210331 0.838027
vn -0.503460 0.210331 0.838027
vn -0.503460 0.210331 0.838027
vn 0.681170 0.000000 0.732125
vn 0.681170 0.000000 0.732125
vn 0.681170 0.000000 0.732125
vn 0.681170 0.000000 0.732125
vn 0.654705 0.000015 0.755884
vn 0.654705 0.000015 0.755884
vn 0.654705 0.000015 0.755884
vn 0.654705 0.000015 0.755884
vn 0.654702 0.000000 0.755887
vn 0.654702 0.000000 0.755887
vn 0.654702 0.000000 0.755887
vn 0.654702 0.000000 0.755887
vn 0.549928 -0.570398 0.610102
vn 0.549928 -0.570398 0.610102
vn 0.549928 -0.570398 0.610102
vn 0.549928 -0.570398 0.610102
vn 0.549939 0.570380 0.610110
vn 0.549939 0.570380 0.610110
vn 0.549939 0.570380 0.610110
vn 0.549939 0.570380 0.610110
vn 0.000000 1.000000 0.000003
vn 0.000000 1.000000 0.000003
vn 0.000000 1.000000 0.000003
vn -0.598669 0.075847 0.797397
vn -0.598669 0.075847 0.797397
vn -0.598669 0.075847 0.797397
vn -0.598669 0.075847 0.797397
vn -0.581369 -0.070879 0.810547
vn -0.581369 -0.070879 0.810547
vn -0.581369 -0.070879 0.810547
vn -0.581369 -0.070879 0.810547
vn -0.654697 -0.000015 0.755892
vn -0.654697 -0.000015 0.755892
vn -0.654697 -0.000015 0.755892
vn -0.654697 -0.000015 0.755892
vn -0.549940 0.570363 0.610124
vn -0.549940 0.570363 0.610124
vn -0.549940 0.570363 0.610124
vn -0.549940 0.570363 0.610124
vn -0.681162 0.000000 0.732132
vn -0.681162 0.000000 0.732132
vn -0.681162 0.000000 0.732132
vn -0.681162 0.000000 0.732132
vn -0.549948 -0.570348 0.610132
vn -0.549948 -0.570348 0.610132
vn -0.549948 -0.570348 0.610132
vn -0.549948 -0.570348 0.610132
vn -0.654701 0.000000 0.755888
vn -0.654701 0.000000 0.755888
vn -0.654701 0.000000 0.755888
vn -0.654701 0.000000 0.755888
vn -0.513270 -0.402763 0.757850
vn -0.513270 -0.402763 0.757850
vn -0.513270 -0.402763 0.757850
vn -0.513270 -0.402763 0.757850
vn -0.604863 -0.250542 0.755890
vn -0.604863 -0.250542 0.755890
vn -0.604863 -0.250542 0.755890
vn -0.604863 -0.250542 0.755890
vn -0.604867 0.250544 0.755886
vn -0.604867 0.250544 0.755886
vn -0.604867 0.250544 0.755886
vn -0.604867 0.250544 0.755886
vn -0.250544 0.604866 0.755887
vn -0.250544 0.604866 0.755887
vn -0.250544 0.604866 0.755887
vn -0.250544 0.604866 0.755887
vn 0.250543 0.604864 0.755888
vn 0.250543 0.604864 0.755889
vn 0.250543 0.604864 0.755888
vn 0.250543 0.604865 0.755888
vn 0.604865 0.250543 0.755888
vn 0.604865 0.250543 0.755888
vn 0.604865 0.250543 0.755888
vn 0.604865 0.250543 0.755888
vn 0.513674 0.402084 -0.757936
vn 0.513674 0.402084 -0.757936
vn 0.513674 0.402084 -0.757936
vn 0.513674 0.402084 -0.757936
vn -0.604866 -0.250542 -0.755887
vn -0.604866 -0.250542 -0.755887
vn -0.604866 -0.250542 -0.755887
vn -0.604866 -0.250542 -0.755887
vn -0.250543 -0.604865 -0.755888
vn -0.250543 -0.604865 -0.755888
vn -0.250543 -0.604865 -0.755888
vn -0.250543 -0.604865 -0.755888
vn 0.250543 -0.604864 -0.755889
vn 0.250543 -0.604864 -0.755889
vn 0.250543 -0.604864 -0.755889
vn 0.250543 -0.604864 -0.755889
vn 0.604862 -0.250543 -0.755890
vn 0.604862 -0.250543 -0.755890
vn 0.604862 -0.250543 -0.755890
vn 0.604862 -0.250543 -0.755890
vn 0.604864 0.250543 -0.755889
vn 0.604864 0.250543 -0.755889
vn 0.604864 0.250543 -0.755889
vn 0.604864 0.250543 -0.755889
vn 0.673135 0.000000 -0.739520
vn 0.673135 0.000000 -0.739520
vn 0.673135 0.000000 -0.739520
vn 0.598662 0.075846 -0.797403
vn 0.598662 0.075846 -0.797403
vn 0.598662 0.075846 -0.797403
vn 0.598662 0.075846 -0.797403
vn 0.581365 -0.070882 -0.810549
vn 0.581365 -0.070882 -0.810549
vn 0.581365 -0.070882 -0.810549
vn 0.581365 -0.070882 -0.810549
vn 0.000000 1.000000 -0.000003
vn 0.000000 1.000000 -0.000003
vn 0.000000 1.000000 -0.000003
vn 0.197418 -0.664486 -0.720753
vn 0.197418 -0.664486 -0.720753
vn 0.197418 -0.664486 -0.720753
vn -0.503460 0.210331 -0.838027
vn -0.503460 0.210331 -0.838027
vn -0.503460 0.210331 -0.838027
vn 0.681170 0.000000 -0.732125
vn 0.681170 0.000000 -0.732125
vn 0.681170 0.000000 -0.732125
vn 0.681170 0.000000 -0.732125
vn 0.654705 0.000015 -0.755884
vn 0.654705 0.000015 -0.755884
vn 0.654705 0.000015 -0.755884
vn 0.654705 0.000015 -0.755884
vn 0.654702 0.000000 -0.755887
vn 0.654702 0.000000 -0.755887
vn 0.654702 0.000000 -0.755887
vn 0.654702 0.000000 -0.755887
vn 0.549928 -0.570398 -0.610102
vn 0.549928 -0.570398 -0.610102
vn 0.549928 -0.570398 -0.610102
vn 0.549928 -0.570398 -0.610102
vn 0.549939 0.570380 -0.610110
vn 0.549939 0.570380 -0.610110
vn 0.549939 0.570380 -0.610110
vn 0.549939 0.570380 -0.610110
vn 0.000000 1.000000 -0.000003
vn 0.000000 1.000000 -0.000003
vn 0.000000 1.000000 -0.000003
vn -0.598669 0.075847 -0.797397
vn -0.598669 0.075847 -0.797397
vn -0.598669 0.075847 -0.797397
vn -0.598669 0.075847 -0.797397
vn -0.581369 -0.070879 -0.810547
vn -0.581369 -0.070879 -0.810547
vn -0.581369 -0.070879 -0.810547
vn -0.581369 -0.070879 -0.810547
vn -0.654697 -0.000015 -0.755892
vn -0.654697 -0.000015 -0.755892
vn -0.654697 -0.000015 -0.755892
vn -0.654697 -0.000015 -0.755892
vn -0.549940 0.570363 -0.610124
vn -0.549940 0.570363 -0.610124
vn -0.549940 0.570363 -0.610124
vn -0.549940 0.570363 -0.610124
vn -0.681162 0.000000 -0.732132
vn -0.681162 0.000000 -0.732132
vn -0.681162 0.000000 -0.732132
vn -0.681162 0.000000 -0.732132
vn -0.549948 -0.570348 -0.610132
vn -0.549948 -0.570348 -0.610132
vn -0.549948 -0.570348 -0.610132
vn -0.549948 -0.570348 -0.610132
vn -0.654701 0.000000 -0.755888
vn -0.654701 0.000000 -0.755888
vn -0.654701 0.000000 -0.755888
vn -0.654701 0.000000 -0.755888
vn -0.513270 -0.402763 -0.757850
vn -0.513270 -0.402763 -0.757850
vn -0.513270 -0.402763 -0.757850
vn -0.513270 -0.402763 -0.757850
vn -0.604863 -0.250542 -0.755890
vn -0.604863 -0.250542 -0.755890
vn -0.604863 -0.250542 -0.755890
vn -0.604863 -0.250542 -0.755890
vn -0.604867 0.250544 -0.755886
vn -0.604867 0.250544 -0.755886
vn -0.604867 0.250544 -0.755886
vn -0.604867 0.250544 -0.755886
vn -0.250544 0.604866 -0.755887
vn -0.250544 0.604866 -0.755887
vn -0.250544 0.604866 -0.755887
vn -0.250544 0.604866 -0.755887
vn 0.250543 0.604864 -0.755888
vn 0.250543 0.604865 -0.755888
vn 0.250543 0.604864 -0.755888
vn 0.250543 0.604864 -0.755889
vn 0.604865 0.250543 -0.755888
vn 0.604865 0.250543 -0.755888
vn 0.604865 0.250543 -0.755888
vn 0.604865 0.250543 -0.755888
s off
g hook
usemtl lambert21SG
f 10/1/1 11/2/2 40/3/3 41/4/4
f 1/5/5 12/6/6 13/7/7 45/8/8
f 13/7/9 14/9/10 44/10/11 45/8/12
f 14/9/13 15/11/14 43/12/15 44/10/16
f 15/11/17 16/13/18 42/14/19 43/12/20
f 16/13/21 10/1/22 41/4/23 42/14/24
f 1/5/25 4/15/26 18/16/27
f 33/17/28 34/18/29 23/19/30 21/20/31
f 17/21/32 23/19/33 34/18/34 35/22/35
f 21/20/36 32/23/37 33/17/38
f 1/5/39 19/24/40 12/6/41
f 1/5/42 18/16/43 19/24/44
f 30/25/45 31/26/46 37/27/47 38/28/48
f 26/29/49 17/21/50 35/22/51 36/30/52
f 11/2/53 27/31/54 39/32/55 40/3/56
f 27/31/57 30/25/58 38/28/59 39/32/60
f 31/26/61 26/29/62 36/30/63 37/27/64
f 33/17/65 32/23/66 20/33/67
f 20/33/68 22/34/69 34/18/70 33/17/71
f 9/35/72 35/22/73 34/18/74 22/34/75
f 24/36/76 36/30/77 35/22/78 9/35/79
f 29/37/80 37/27/81 36/30/82 24/36/83
f 38/28/84 37/27/85 29/37/86 28/38/87
f 39/32/88 38/28/89 28/38/90 25/39/91
f 40/3/92 39/32/93 25/39/94 3/40/95
f 41/4/96 40/3/97 3/40/98 2/41/99
f 42/14/100 41/4/101 2/41/102 8/42/103
f 43/12/104 42/14/105 8/42/106 7/43/107
f 44/10/108 43/12/109 7/43/110 6/44/111
f 45/8/112 44/10/113 6/44/114 5/45/115
f 4/15/116 1/5/117 45/8/118 5/45/119
f 10/46/120 55/47/121 54/48/122 11/49/123
f 46/50/124 59/51/125 13/52/126 12/53/127
f 13/52/128 59/51/129 58/54/130 14/55/131
f 14/55/132 58/54/133 57/56/134 15/57/135
f 15/57/136 57/56/137 56/58/138 16/59/139
f 16/59/140 56/58/141 55/47/142 10/46/143
f 46/50/144 18/60/145 4/61/146
f 47/62/147 21/63/148 23/64/149 48/65/150
f 17/66/151 49/67/152 48/65/153 23/64/154
f 21/63/155 47/62/156 32/68/157
f 46/50/158 12/53/159 19/69/160
f 46/50/161 19/69/162 18/60/163
f 30/70/164 52/71/165 51/72/166 31/73/167
f 26/74/168 50/75/169 49/67/170 17/66/171
f 11/49/172 54/48/173 53/76/174 27/77/175
f 27/77/176 53/76/177 52/71/178 30/70/179
f 31/73/180 51/72/181 50/75/182 26/74/183
f 47/62/184 20/78/185 32/68/186
f 20/78/187 47/62/188 48/65/189 22/79/190
f 9/80/191 22/79/192 48/65/193 49/67/194
f 24/81/195 9/80/196 49/67/197 50/75/198
f 29/82/199 24/81/200 50/75/201 51/72/202
f 52/71/203 28/83/204 29/82/205 51/72/206
f 53/76/207 25/84/208 28/83/209 52/71/210
f 54/48/211 3/85/212 25/84/213 53/76/214
f 55/47/215 2/86/216 3/85/217 54/48/218
f 56/58/219 8/87/220 2/86/221 55/47/222
f 57/56/223 7/88/224 8/87/225 56/58/226
f 58/54/227 6/89/228 7/88/229 57/56/230
f 59/51/231 5/90/232 6/89/233 58/54/234
f 4/61/235 5/90/236 59/51/237 46/50/238
