# This file uses centimeters as units for non-parametric coordinates.

mtllib world Zero Hook.mtl
g default
v -3.196720 -10.985054 0.471191
v -4.487537 -13.107643 0.471191
v -0.558811 -0.003769 0.471191
v 0.397182 -0.003769 0.471191
v -0.558811 -0.003769 -0.471191
v 0.397182 -0.003769 -0.471191
v -3.196720 -10.985054 -0.471191
v -4.487537 -13.107643 -0.471191
v -0.274078 -4.677689 0.471191
v -0.274078 -4.677689 -0.471191
v 0.772800 -4.342979 -0.471191
v 0.772800 -4.342979 0.471191
v 1.156933 -9.473648 0.471191
v 1.156933 -9.473648 -0.471191
v 3.654259 -9.329735 -0.471191
v 3.654259 -9.329735 0.471191
v 0.717808 -11.148094 0.471191
v 0.717808 -11.148094 -0.471191
v 2.634430 -13.004555 -0.471191
v 2.634430 -13.004555 0.471191
v -3.855015 -8.833496 -0.230796
v -4.672146 -9.110672 -0.230796
v -4.672146 -9.110672 0.230796
v -3.855015 -8.833496 0.230796
v -3.287842 -6.883224 -0.076727
v -3.561825 -6.798149 -0.076727
v -3.561825 -6.798149 0.076727
v -3.287842 -6.883224 0.076727
v -0.536030 -2.054367 0.471191
v -0.536030 -2.054367 -0.471191
v 0.467865 -2.054367 -0.471191
v 0.467865 -2.054367 0.471191
v 0.478535 -7.343758 0.471191
v 0.478535 -7.343758 -0.471191
v 2.232601 -6.869972 -0.471191
v 2.232601 -6.869972 0.471191
v -1.182575 -11.668854 0.471191
v -1.182575 -11.668854 -0.471191
v -1.219425 -14.339241 -0.471191
v -1.219425 -14.339241 0.471191
vt 0.547298 0.017115
vt 0.547669 0.043742
vt 0.527425 0.050561
vt 0.514452 0.029396
vt 0.514452 0.029396
vt 0.527425 0.050561
vt 0.547669 0.043742
vt 0.547298 0.017115
vt 0.631682 0.021710
vt 0.631675 0.024546
vt 0.629346 0.024541
vt 0.629353 0.021705
vt 0.623319 0.042461
vt 0.637624 0.042493
vt 0.637550 0.076332
vt 0.623245 0.076301
vt 0.605439 0.042622
vt 0.618311 0.042736
vt 0.618227 0.079854
vt 0.605356 0.079740
vt 0.605190 0.152884
vt 0.618062 0.152998
vt 0.618043 0.161200
vt 0.605171 0.161086
vt 0.554167 0.139612
vt 0.564256 0.139612
vt 0.567321 0.116791
vt 0.556799 0.113454
vt 0.623065 0.158592
vt 0.637370 0.158624
vt 0.637360 0.163153
vt 0.623055 0.163122
vt 0.556799 0.113454
vt 0.567321 0.116791
vt 0.564256 0.139612
vt 0.554167 0.139612
vt 0.605256 0.123875
vt 0.618127 0.123989
vt 0.618096 0.137589
vt 0.605225 0.137475
vt 0.564364 0.086869
vt 0.581993 0.091594
vt 0.596282 0.067067
vt 0.571182 0.065632
vt 0.623132 0.127965
vt 0.637437 0.127997
vt 0.637404 0.143107
vt 0.623099 0.143076
vt 0.571182 0.065632
vt 0.596282 0.067067
vt 0.581993 0.091594
vt 0.564364 0.086869
vt 0.605276 0.114749
vt 0.618148 0.114863
vt 0.586032 0.030424
vt 0.566769 0.048935
vt 0.623158 0.116198
vt 0.637463 0.116229
vt 0.566769 0.048935
vt 0.586032 0.030424
vt 0.512596 0.069251
vt 0.520809 0.072015
vt 0.626981 0.036478
vt 0.633988 0.036494
vt 0.512596 0.069251
vt 0.520809 0.072015
vt 0.608753 0.029367
vt 0.615057 0.029423
vt 0.523756 0.092310
vt 0.526509 0.091462
vt 0.526509 0.091462
vt 0.523756 0.092310
vt 0.610883 0.017838
vt 0.612979 0.017857
vt 0.618031 0.166403
vt 0.605160 0.166289
vt 0.553938 0.160059
vt 0.563546 0.160059
vt 0.637353 0.166157
vt 0.623048 0.166126
vt 0.563546 0.160059
vt 0.553938 0.160059
vn 0.000000 0.000000 1.000000
vn 0.000000 0.000000 1.000000
vn 0.000000 0.000000 1.000000
vn 0.000000 0.000000 1.000000
vn 0.000000 0.000000 -1.000000
vn 0.000000 0.000000 -1.000000
vn 0.000000 0.000000 -1.000000
vn 0.000000 0.000000 -1.000000
vn 0.296546 0.955019 0.000000
vn 0.296546 0.955019 0.000000
vn 0.296546 0.955019 0.000000
vn 0.296546 0.955019 0.000000
vn -0.352643 -0.935758 0.000000
vn -0.352643 -0.935758 0.000000
vn 0.014473 -0.999895 0.000000
vn 0.014473 -0.999895 0.000000
vn 0.321478 0.946917 0.000000
vn 0.321478 0.946917 0.000000
vn 0.041614 0.999134 0.000000
vn 0.041614 0.999134 0.000000
vn -0.982097 -0.188377 0.000000
vn -0.982097 -0.188377 0.000000
vn -0.998150 -0.060806 0.000000
vn -0.998150 -0.060806 0.000000
vn 0.000000 0.000000 -1.000000
vn 0.000000 0.000000 -1.000000
vn 0.000000 0.000000 -1.000000
vn 0.000000 0.000000 -1.000000
vn 0.938939 0.344085 0.000000
vn 0.938939 0.344085 0.000000
vn 0.996274 0.086241 0.000000
vn 0.996274 0.086241 0.000000
vn 0.000000 0.000000 1.000000
vn 0.000000 0.000000 1.000000
vn 0.000000 0.000000 1.000000
vn 0.000000 0.000000 1.000000
vn -0.998028 -0.062771 0.000000
vn -0.998028 -0.062771 0.000000
vn -0.958253 -0.285922 0.000000
vn -0.958253 -0.285922 0.000000
vn 0.000000 0.000000 -1.000000
vn 0.000000 0.000000 -1.000000
vn 0.000000 0.000000 -1.000000
vn 0.000000 0.000000 -1.000000
vn 0.997862 0.065362 0.000000
vn 0.997862 0.065362 0.000000
vn 0.865849 0.500306 0.000000
vn 0.865849 0.500306 0.000000
vn 0.000000 0.000000 1.000000
vn 0.000000 0.000000 1.000000
vn 0.000000 0.000000 1.000000
vn 0.000000 0.000000 1.000000
vn -0.684259 0.729239 0.000000
vn -0.684259 0.729239 0.000000
vn -0.998028 -0.062771 0.000000
vn -0.998028 -0.062771 0.000000
vn 0.000000 0.000000 -1.000000
vn 0.000000 0.000000 -1.000000
vn 0.000000 0.000000 -1.000000
vn 0.000000 0.000000 -1.000000
vn 0.716757 -0.697323 0.000000
vn 0.716757 -0.697323 0.000000
vn 0.997862 0.065362 0.000000
vn 0.997862 0.065362 0.000000
vn 0.000000 0.000000 1.000000
vn 0.000000 0.000000 1.000000
vn 0.000000 0.000000 1.000000
vn 0.000000 0.000000 1.000000
vn -0.076602 0.067287 -0.994789
vn -0.076602 0.067287 -0.994789
vn -0.069656 0.068422 -0.995222
vn -0.058390 0.070253 -0.995819
vn -0.998935 -0.046138 0.000000
vn -0.998935 -0.046138 0.000000
vn -0.998551 0.053818 0.000000
vn -0.998551 0.053818 0.000000
vn -0.069656 0.068422 0.995222
vn -0.076602 0.067287 0.994789
vn -0.076602 0.067287 0.994789
vn -0.058390 0.070253 0.995819
vn 0.956243 0.292573 0.000000
vn 0.956243 0.292573 0.000000
vn 0.956243 0.292573 0.000000
vn 0.956243 0.292573 0.000000
vn -0.058390 0.070253 -0.995819
vn -0.069656 0.068422 -0.995222
vn -0.013632 0.077426 -0.996905
vn -0.013632 0.077426 -0.996905
vn -0.998551 0.053818 0.000000
vn -0.998551 0.053818 0.000000
vn -0.901476 0.432829 0.000000
vn -0.901476 0.432829 0.000000
vn -0.069656 0.068422 0.995222
vn -0.058390 0.070253 0.995819
vn -0.013632 0.077426 0.996905
vn -0.013632 0.077426 0.996905
vn 0.960220 -0.279245 0.000000
vn 0.960220 -0.279245 0.000000
vn 0.960220 -0.279245 0.000000
vn 0.960220 -0.279245 0.000000
vn -0.998150 -0.060806 0.000000
vn -0.998150 -0.060806 0.000000
vn -0.999938 -0.011109 0.000000
vn -0.999938 -0.011109 0.000000
vn 0.000000 0.000000 -1.000000
vn 0.000000 0.000000 -1.000000
vn 0.000000 0.000000 -1.000000
vn 0.000000 0.000000 -1.000000
vn 0.996274 0.086241 0.000000
vn 0.996274 0.086241 0.000000
vn 0.999407 0.034450 0.000000
vn 0.999407 0.034450 0.000000
vn 0.000000 0.000000 1.000000
vn 0.000000 0.000000 1.000000
vn 0.000000 0.000000 1.000000
vn 0.000000 0.000000 1.000000
vn -0.958253 -0.285922 0.000000
vn -0.958253 -0.285922 0.000000
vn -0.982097 -0.188377 0.000000
vn -0.982097 -0.188377 0.000000
vn 0.000000 0.000000 -1.000000
vn 0.000000 0.000000 -1.000000
vn 0.000000 0.000000 -1.000000
vn 0.000000 0.000000 -1.000000
vn 0.865849 0.500306 0.000000
vn 0.865849 0.500306 0.000000
vn 0.938939 0.344085 0.000000
vn 0.938939 0.344085 0.000000
vn 0.000000 0.000000 1.000000
vn 0.000000 0.000000 1.000000
vn 0.000000 0.000000 1.000000
vn 0.000000 0.000000 1.000000
vn 0.041614 0.999134 0.000000
vn 0.041614 0.999134 0.000000
vn -0.684259 0.729239 0.000000
vn -0.684259 0.729239 0.000000
vn 0.000000 0.000000 -1.000000
vn 0.000000 0.000000 -1.000000
vn 0.000000 0.000000 -1.000000
vn 0.000000 0.000000 -1.000000
vn 0.014473 -0.999895 0.000000
vn 0.014473 -0.999895 0.000000
vn 0.716757 -0.697323 0.000000
vn 0.716757 -0.697323 0.000000
vn 0.000000 0.000000 1.000000
vn 0.000000 0.000000 1.000000
vn 0.000000 0.000000 1.000000
vn 0.000000 0.000000 1.000000
s off
g Hook_HookHookBoat_Full
usemtl Hook_lambert7SG2
f 40/1/1 37/2/2 1/3/3 2/4/4
f 8/5/5 7/6/6 38/7/7 39/8/8
f 25/9/9 26/10/10 27/11/11 28/12/12
f 2/13/13 8/14/14 39/15/15 40/16/16
f 7/17/17 1/18/18 37/19/19 38/20/20
f 10/21/21 9/22/22 29/23/23 30/24/24
f 30/25/25 31/26/26 11/27/27 10/28/28
f 12/29/29 11/30/30 31/31/31 32/32/32
f 9/33/33 12/34/34 32/35/35 29/36/36
f 14/37/37 13/38/38 33/39/39 34/40/40
f 34/41/41 35/42/42 15/43/43 14/44/44
f 16/45/45 15/46/46 35/47/47 36/48/48
f 13/49/49 16/50/50 36/51/51 33/52/52
f 18/53/53 17/54/54 13/38/55 14/37/56
f 14/44/57 15/43/58 19/55/59 18/56/60
f 20/57/61 19/58/62 15/46/63 16/45/64
f 17/59/65 20/60/66 16/50/67 13/49/68
f 7/6/69 8/5/70 22/61/71 21/62/72
f 8/14/73 2/13/74 23/63/75 22/64/76
f 23/65/77 2/4/78 1/3/79 24/66/80
f 1/18/81 7/17/82 21/67/83 24/68/84
f 21/62/85 22/61/86 26/69/87 25/70/88
f 22/64/89 23/63/90 27/11/91 26/10/92
f 23/65/93 24/66/94 28/71/95 27/72/96
f 24/68/97 21/67/98 25/73/99 28/74/100
f 30/24/101 29/23/102 3/75/103 5/76/104
f 5/77/105 6/78/106 31/26/107 30/25/108
f 32/32/109 31/31/110 6/79/111 4/80/112
f 29/36/113 32/35/114 4/81/115 3/82/116
f 34/40/117 33/39/118 9/22/119 10/21/120
f 10/28/121 11/27/122 35/42/123 34/41/124
f 36/48/125 35/47/126 11/30/127 12/29/128
f 33/52/129 36/51/130 12/34/131 9/33/132
f 38/20/133 37/19/134 17/54/135 18/53/136
f 39/8/137 38/7/138 18/56/139 19/55/140
f 40/16/141 39/15/142 19/58/143 20/57/144
f 17/59/145 37/2/146 40/1/147 20/60/148
