# This file uses centimeters as units for non-parametric coordinates.

mtllib shop_displayCabinet.mtl
g default
v 52.953789 18.208582 -52.189995
v 52.953789 18.208586 -65.337784
v 57.922173 18.208586 -65.245926
v 57.922173 18.208582 -52.098141
v 52.953789 18.808580 -52.189995
v 52.953789 18.808588 -65.337784
v 57.922173 18.808588 -65.245926
v 57.922173 18.808580 -52.098141
v 52.953789 23.182024 -52.189995
v 52.953789 23.182028 -65.337784
v 57.922173 23.182028 -65.245926
v 57.922173 23.182024 -52.098141
v 52.953789 23.782022 -52.189995
v 52.953789 23.782030 -65.337784
v 57.922173 23.782030 -65.245926
v 57.922173 23.782022 -52.098141
v 52.953789 28.455462 -52.189995
v 52.953789 28.455465 -65.337784
v 57.922173 28.455465 -65.245926
v 57.922173 28.455462 -52.098141
v 52.953789 29.055460 -52.189995
v 52.953789 29.055468 -65.337784
v 57.922173 29.055468 -65.245926
v 57.922173 29.055460 -52.098141
v 52.953789 33.728905 -52.189995
v 52.953789 33.728909 -65.337784
v 57.922173 33.728909 -65.245926
v 57.922173 33.728905 -52.098141
v 52.953789 34.328903 -52.189995
v 52.953789 34.328911 -65.337784
v 57.922173 34.328911 -65.245926
v 57.922173 34.328903 -52.098141
v 52.953785 18.208576 -51.444122
v 52.953789 18.208582 -52.189995
v 57.922173 18.208574 -52.098145
v 57.922169 18.208569 -51.352268
v 52.953785 14.106510 -51.444122
v 52.953789 14.106510 -52.189995
v 57.922173 14.106510 -52.098145
v 57.922169 14.106510 -51.352268
v 52.953785 18.208576 -18.523510
v 52.953789 18.208582 -19.269384
v 57.922173 18.208574 -19.177534
v 57.922169 18.208569 -18.431658
v 52.953785 14.106510 -18.523510
v 52.953789 14.106510 -19.269384
v 57.922173 14.106510 -19.177534
v 57.922169 14.106510 -18.431658
v 52.953785 18.208567 -5.375725
v 52.953785 18.208570 -18.523510
v 57.922169 18.208570 -18.431656
v 57.922169 18.208567 -5.283871
v 52.953785 18.808565 -5.375725
v 52.953785 18.808573 -18.523510
v 57.922169 18.808573 -18.431656
v 57.922169 18.808565 -5.283870
v 52.953785 23.182009 -5.375725
v 52.953785 23.182013 -18.523510
v 57.922169 23.182013 -18.431656
v 57.922169 23.182009 -5.283871
v 52.953785 23.782007 -5.375725
v 52.953785 23.782015 -18.523510
v 57.922169 23.782015 -18.431656
v 57.922169 23.782007 -5.283870
v 52.953785 28.455446 -5.375725
v 52.953785 28.455450 -18.523510
v 57.922169 28.455450 -18.431656
v 57.922169 28.455446 -5.283871
v 52.953785 29.055445 -5.375725
v 52.953785 29.055452 -18.523510
v 57.922169 29.055452 -18.431656
v 57.922169 29.055445 -5.283870
v 52.953785 33.728889 -5.375725
v 52.953785 33.728893 -18.523510
v 57.922169 33.728893 -18.431656
v 57.922169 33.728889 -5.283871
v 52.953785 34.328888 -5.375725
v 52.953785 34.328896 -18.523510
v 57.922169 34.328896 -18.431656
v 57.922169 34.328888 -5.283870
v 57.770226 14.106510 -4.675779
v 57.770226 40.002331 -4.675779
v 57.770233 14.106511 -66.037727
v 57.770233 40.002335 -66.037727
v 57.613678 18.908577 -19.223459
v 57.770226 40.002335 -19.223459
v 57.770233 40.002335 -51.490040
v 57.926785 18.908583 -51.490040
v 52.953785 14.106510 -4.675779
v 52.953785 40.002335 -4.675779
v 52.953785 40.002331 -19.223459
v 52.953785 18.908577 -19.223459
v 52.953789 14.106511 -66.037727
v 52.953789 40.002335 -66.037727
v 52.953789 18.908583 -51.490040
v 52.953789 40.002335 -51.490040
v 52.953781 14.106518 -5.375725
v 52.953785 39.302330 -5.375725
v 52.953785 39.302334 -18.523510
v 52.953785 18.208576 -18.523510
v 52.953789 14.106519 -65.337776
v 52.953793 39.302330 -65.337776
v 52.953789 18.208582 -52.189995
v 52.953789 39.302330 -52.189995
v 57.770233 14.106509 -5.283874
v 57.922169 39.302330 -5.283871
v 57.922169 39.302334 -18.431656
v 57.922169 18.208569 -18.431658
v 57.770229 14.106510 -65.245926
v 57.922176 39.302330 -65.245926
v 57.922173 18.208574 -52.098145
v 57.922173 39.302330 -52.098145
v 57.770233 14.106515 -4.675778
v 57.770233 14.106521 -66.037727
v 47.740917 14.106521 -66.037727
v 47.740921 14.106515 -4.675778
v 57.770233 2.330803 -4.675778
v 57.770233 2.330809 -66.037727
v 47.740917 2.330809 -66.037727
v 47.740921 2.330803 -4.675778
v 47.740917 13.306515 -5.475765
v 47.740921 13.306520 -65.237740
v 47.740917 2.330800 -5.475765
v 47.740921 2.330806 -65.237740
v 55.840786 13.306515 -5.429077
v 55.840786 13.306520 -65.191055
v 55.840786 2.330800 -5.429077
v 55.840786 2.330806 -65.191055
v 22.185064 11.300380 -5.598747
v 22.185066 11.300380 -69.160690
v 22.185064 12.297003 -5.598747
v 22.185066 12.297003 -69.160690
v 33.454021 11.300380 -69.160690
v 33.454021 12.297003 -69.160690
v 33.454021 12.297003 -5.598748
v 33.454021 11.300380 -5.598748
vt 0.988262 0.237176
vt 0.988237 0.890713
vt 0.011380 0.890713
vt 0.011380 0.521554
vt 0.988263 0.399457
vt 0.011355 0.192598
vt 0.011354 0.030317
vt 0.988263 0.030317
vt 0.988262 0.237176
vt 0.988237 1.214289
vt 0.011380 1.214289
vt 0.011380 0.845130
vt 0.988263 0.399457
vt 0.011355 0.192598
vt 0.011354 0.030317
vt 0.988263 0.030317
vt 0.988262 0.237176
vt 0.988237 0.399467
vt 0.011380 0.399467
vt 0.011380 0.030307
vt 0.988263 0.399457
vt 0.011355 0.192598
vt 0.011354 0.030317
vt 0.988263 0.030317
vt 0.988262 0.237176
vt 0.988237 0.696568
vt 0.011380 0.696568
vt 0.011380 0.327409
vt 0.988263 0.399457
vt 0.011355 0.192598
vt 0.011354 0.030317
vt 0.988263 0.030317
vt 0.988263 0.387420
vt 0.988237 0.549710
vt 0.011380 0.549710
vt 0.011380 0.180551
vt 0.988263 0.399457
vt 0.011354 0.342841
vt 0.011354 0.030317
vt 0.988263 0.030317
vt 1.015300 0.652391
vt 0.959884 0.652392
vt 0.959883 0.347608
vt 1.015302 0.347608
vt 0.590670 0.652391
vt 0.590669 0.347608
vt 1.384515 0.652391
vt 1.384515 0.347608
vt 0.040117 0.652391
vt -0.015302 0.652392
vt -0.015301 0.347608
vt 0.040116 0.347608
vt -0.384515 0.652391
vt -0.384515 0.347608
vt 0.409330 0.652391
vt 0.409331 0.347608
vt 0.988262 0.766527
vt 0.988237 1.078975
vt 0.011381 1.078975
vt 0.011381 0.709816
vt 0.988263 0.399457
vt 0.011355 0.721948
vt 0.011354 0.030317
vt 0.988263 0.030317
vt 0.988262 0.237176
vt 0.988237 0.390505
vt 0.011381 0.390505
vt 0.011381 0.021346
vt 0.988263 0.399457
vt 0.011355 0.192598
vt 0.011354 0.030317
vt 0.988263 0.030317
vt 0.988262 0.237176
vt 0.988237 0.905421
vt 0.011381 0.905421
vt 0.011381 0.536262
vt 0.988263 0.399457
vt 0.011355 0.192598
vt 0.011354 0.030317
vt 0.988263 0.030317
vt 2.720156 0.907748
vt 2.720156 0.092252
vt -1.720156 0.092252
vt -1.720156 0.907747
vt 1.750821 1.528464
vt 1.750821 -0.038942
vt 2.727788 -0.343752
vt 2.727788 1.528464
vt -0.750821 -0.038942
vt -0.750821 1.528464
vt -1.727788 1.528464
vt -1.727788 -0.343752
vt 1.285169 1.836945
vt -0.282106 1.836945
vt -0.282106 -0.560474
vt 1.285169 -0.560474
vt 6.270823 0.671905
vt 4.352161 0.671905
vt 4.352161 0.314038
vt 6.270823 0.314038
vt -5.196131 0.313156
vt -3.314657 0.313156
vt -3.314657 0.678598
vt -5.196131 0.678598
vt -2.332462 0.313156
vt -2.332462 0.678598
vt -0.757334 0.313156
vt -0.757334 0.678598
vt 3.274611 0.671905
vt 3.274611 0.314038
vt -1.779591 -0.462027
vt -1.779591 1.462028
vt -1.727585 1.410017
vt -1.727585 -0.462027
vt 1.710787 0.671905
vt 1.710787 0.314038
vt -0.698701 1.462027
vt -0.750707 1.410017
vt -0.698701 -0.105234
vt -0.750707 -0.157245
vt 2.779591 1.462028
vt 2.779591 -0.462027
vt 2.727583 -0.462027
vt 2.727583 1.410017
vt 1.698700 -0.105234
vt 1.698700 1.462028
vt 1.750706 1.410017
vt 1.750706 -0.157244
vt 2.779598 0.872589
vt -1.779603 0.872589
vt -1.779582 0.127412
vt 2.779596 0.127412
vt 2.779595 0.062533
vt 2.779595 0.937468
vt 2.779592 0.937467
vt 2.720153 0.878027
vt -2.098111 0.148139
vt -2.094055 0.851861
vt 3.098111 0.851862
vt 3.094055 0.148139
vt -1.720153 0.878027
vt -1.779592 0.937467
vt -1.779595 0.937467
vt -1.779595 0.062533
vt -1.720153 0.062533
vt -1.779592 0.062533
vt 2.779592 0.062534
vt 2.720153 0.062533
vt -3.341484 0.671905
vt -5.270825 0.671905
vt -5.270825 0.314038
vt -3.341484 0.314038
vt -0.686495 0.671905
vt -2.257189 0.671905
vt -2.257189 0.314038
vt -0.686495 0.314038
vt 4.314208 0.313156
vt 6.196068 0.313156
vt 6.196068 0.678598
vt 4.314208 0.678598
vt 1.757090 0.313156
vt 3.332597 0.313156
vt 3.332597 0.678598
vt 1.757090 0.678598
vt -1.156564 0.872589
vt -1.156564 0.127412
vt 2.156564 0.127412
vt 2.156564 0.872589
vt 3.098111 0.851862
vt 3.094055 0.148139
vt -2.098111 0.148139
vt -2.094055 0.851861
vt 0.988237 0.536262
vt 0.011355 0.237176
vt 0.988262 0.192598
vt 0.011354 0.399457
vt 0.988237 0.021346
vt 0.011355 0.237176
vt 0.988262 0.192598
vt 0.011354 0.399457
vt 0.988237 0.709816
vt 0.011355 0.766527
vt 0.988262 0.721948
vt 0.011354 0.399457
vt 0.988237 0.180551
vt 0.011354 0.387420
vt 0.988263 0.342841
vt 0.011354 0.399457
vt 0.988237 0.327409
vt 0.011355 0.237176
vt 0.988262 0.192598
vt 0.011354 0.399457
vt 0.988237 0.030307
vt 0.011355 0.237176
vt 0.988262 0.192598
vt 0.011354 0.399457
vt 0.988237 0.845130
vt 0.011355 0.237176
vt 0.988262 0.192598
vt 0.011354 0.399457
vt 0.988237 0.521554
vt 0.011355 0.237176
vt 0.988262 0.192598
vt 0.011354 0.399457
vt -1.922955 0.473405
vt 3.065222 0.472950
vt 3.065230 0.551162
vt -1.922948 0.551617
vt -1.923036 -0.410954
vt -2.001168 0.473412
vt -2.001248 -0.410947
vt -1.923043 -0.489166
vt 3.065134 -0.489622
vt 3.065141 -0.411409
vt 3.143354 -0.411416
vt 3.143435 0.472942
vt 3.065310 1.435521
vt -1.922867 1.435976
vn -0.000000 1.000000 0.000001
vn -0.000000 1.000000 0.000001
vn -0.000000 1.000000 0.000001
vn -0.000000 1.000000 0.000001
vn 0.000000 -1.000000 -0.000000
vn 0.000000 -1.000000 -0.000000
vn 0.000000 -1.000000 -0.000000
vn 0.000000 -1.000000 -0.000000
vn -1.000000 0.000000 0.000000
vn -1.000000 0.000000 0.000000
vn -1.000000 0.000000 0.000000
vn -1.000000 0.000000 0.000000
vn -0.000000 1.000000 0.000001
vn -0.000000 1.000000 0.000001
vn -0.000000 1.000000 0.000001
vn -0.000000 1.000000 0.000001
vn 0.000000 -1.000000 -0.000000
vn 0.000000 -1.000000 -0.000000
vn 0.000000 -1.000000 -0.000000
vn 0.000000 -1.000000 -0.000000
vn -1.000000 0.000000 0.000000
vn -1.000000 0.000000 0.000000
vn -1.000000 0.000000 0.000000
vn -1.000000 0.000000 0.000000
vn -0.000000 1.000000 0.000001
vn -0.000000 1.000000 0.000001
vn -0.000000 1.000000 0.000001
vn -0.000000 1.000000 0.000001
vn 0.000000 -1.000000 -0.000000
vn 0.000000 -1.000000 -0.000000
vn 0.000000 -1.000000 -0.000000
vn 0.000000 -1.000000 -0.000000
vn -1.000000 0.000000 0.000000
vn -1.000000 0.000000 0.000000
vn -1.000000 0.000000 0.000000
vn -1.000000 0.000000 0.000000
vn -0.000000 1.000000 0.000000
vn -0.000000 1.000000 0.000000
vn -0.000000 1.000000 0.000000
vn -0.000000 1.000000 0.000000
vn 0.000000 -1.000000 -0.000000
vn 0.000000 -1.000000 -0.000000
vn 0.000000 -1.000000 -0.000000
vn 0.000000 -1.000000 -0.000000
vn -1.000000 0.000000 0.000000
vn -1.000000 0.000000 0.000000
vn -1.000000 0.000000 0.000000
vn -1.000000 0.000000 0.000000
vn -1.000000 0.000000 -0.000005
vn -1.000000 0.000000 -0.000005
vn -1.000000 0.000000 -0.000005
vn -1.000000 0.000000 -0.000005
vn 0.018483 0.000000 -0.999829
vn 0.018483 0.000000 -0.999829
vn 0.018484 0.000000 -0.999829
vn 0.018484 0.000000 -0.999829
vn -0.018484 0.000000 0.999829
vn -0.018484 0.000000 0.999829
vn -0.018484 0.000000 0.999829
vn -0.018484 0.000000 0.999829
vn -1.000000 0.000000 -0.000005
vn -1.000000 0.000000 -0.000005
vn -1.000000 0.000000 -0.000005
vn -1.000000 0.000000 -0.000005
vn 0.018484 0.000000 -0.999829
vn 0.018484 0.000000 -0.999829
vn 0.018484 0.000000 -0.999829
vn 0.018484 0.000000 -0.999829
vn -0.018485 0.000000 0.999829
vn -0.018485 0.000000 0.999829
vn -0.018485 0.000000 0.999829
vn -0.018485 0.000000 0.999829
vn -0.000000 1.000000 0.000001
vn -0.000000 1.000000 0.000001
vn -0.000000 1.000000 0.000001
vn -0.000000 1.000000 0.000001
vn 0.000000 -1.000000 -0.000000
vn 0.000000 -1.000000 -0.000000
vn 0.000000 -1.000000 -0.000000
vn 0.000000 -1.000000 -0.000000
vn -1.000000 0.000000 0.000000
vn -1.000000 0.000000 0.000000
vn -1.000000 0.000000 0.000000
vn -1.000000 0.000000 0.000000
vn -0.000000 1.000000 0.000001
vn -0.000000 1.000000 0.000001
vn -0.000000 1.000000 0.000001
vn -0.000000 1.000000 0.000001
vn 0.000000 -1.000000 -0.000000
vn 0.000000 -1.000000 -0.000000
vn 0.000000 -1.000000 -0.000000
vn 0.000000 -1.000000 -0.000000
vn -1.000000 0.000000 0.000000
vn -1.000000 0.000000 0.000000
vn -1.000000 0.000000 0.000000
vn -1.000000 0.000000 0.000000
vn -0.000000 1.000000 0.000001
vn -0.000000 1.000000 0.000001
vn -0.000000 1.000000 0.000001
vn -0.000000 1.000000 0.000001
vn 0.000000 -1.000000 -0.000000
vn 0.000000 -1.000000 -0.000000
vn 0.000000 -1.000000 -0.000000
vn 0.000000 -1.000000 -0.000000
vn -1.000000 0.000000 0.000000
vn -1.000000 0.000000 0.000000
vn -1.000000 0.000000 0.000000
vn -1.000000 0.000000 0.000000
vn -0.000000 1.000000 0.000000
vn -0.000000 1.000000 0.000000
vn -0.000000 1.000000 0.000000
vn -0.000000 1.000000 0.000000
vn 0.000000 -1.000000 -0.000000
vn 0.000000 -1.000000 -0.000000
vn 0.000000 -1.000000 -0.000000
vn 0.000000 -1.000000 -0.000000
vn -1.000000 0.000000 0.000000
vn -1.000000 0.000000 0.000000
vn -1.000000 0.000000 0.000000
vn -1.000000 0.000000 0.000000
vn -0.999988 -0.000000 -0.004852
vn -0.999988 -0.000000 -0.004852
vn -0.999988 -0.000000 -0.004852
vn -0.999988 -0.000000 -0.004852
vn -0.999960 0.007700 -0.004577
vn -0.999981 0.003282 -0.005266
vn -0.999981 0.003282 -0.005266
vn -0.999801 0.019781 -0.002691
vn -0.999981 0.003282 0.005266
vn -0.999960 0.007700 0.004577
vn -0.999801 0.019781 0.002691
vn -0.999981 0.003282 0.005266
vn 0.000000 0.000000 1.000000
vn 0.000000 0.000000 1.000000
vn 0.000000 0.000000 1.000000
vn 0.000000 0.000000 1.000000
vn 0.000000 1.000000 0.000000
vn 0.000000 1.000000 0.000000
vn 0.000000 1.000000 0.000000
vn 0.000000 1.000000 0.000000
vn -0.000000 0.000000 -1.000000
vn -0.000000 0.000000 -1.000000
vn -0.000000 0.000000 -1.000000
vn -0.000000 0.000000 -1.000000
vn 0.000000 0.000000 -1.000000
vn 0.000000 0.000000 -1.000000
vn 0.000000 0.000000 -1.000000
vn 0.000000 0.000000 -1.000000
vn 0.000000 0.000000 1.000000
vn 0.000000 0.000000 1.000000
vn 0.000000 0.000000 1.000000
vn 0.000000 0.000000 1.000000
vn 0.000000 1.000000 0.000000
vn 0.000000 1.000000 0.000000
vn 0.000000 1.000000 0.000000
vn 0.000000 1.000000 0.000000
vn 0.000000 1.000000 0.000000
vn 0.000000 1.000000 0.000000
vn 0.000000 1.000000 0.000000
vn 0.000000 1.000000 0.000000
vn -1.000000 0.000000 0.000003
vn -1.000000 0.000001 0.000002
vn -1.000000 0.000001 0.000002
vn -1.000000 0.000000 0.000003
vn -1.000000 0.000001 0.000000
vn -1.000000 0.000001 0.000000
vn -1.000000 -0.000003 -0.000000
vn -1.000000 -0.000003 -0.000000
vn -1.000000 -0.000001 0.000002
vn -1.000000 0.000000 0.000003
vn -1.000000 0.000000 0.000003
vn -1.000000 -0.000001 0.000002
vn -1.000000 -0.000003 -0.000000
vn -1.000000 -0.000001 -0.000000
vn -1.000000 -0.000001 -0.000000
vn -1.000000 -0.000003 -0.000000
vn 0.018771 -0.000057 -0.999824
vn 0.018771 -0.000057 -0.999824
vn 0.018771 -0.000057 -0.999824
vn 0.018771 -0.000057 -0.999824
vn 0.000000 -1.000000 -0.000000
vn 0.000000 -1.000000 -0.000000
vn 0.000000 -1.000000 -0.000000
vn 0.000000 -1.000000 -0.000000
vn -0.018485 -0.000000 0.999829
vn -0.018485 -0.000000 0.999829
vn -0.018485 -0.000000 0.999829
vn -0.018485 -0.000000 0.999829
vn -0.018771 0.000057 0.999824
vn -0.018771 0.000057 0.999824
vn -0.018771 0.000057 0.999824
vn -0.018771 0.000057 0.999824
vn 0.018483 0.000000 -0.999829
vn 0.018483 0.000000 -0.999829
vn 0.018483 0.000000 -0.999829
vn 0.018483 0.000000 -0.999829
vn 0.000000 -1.000000 0.000000
vn 0.000000 -1.000000 0.000000
vn 0.000000 -1.000000 0.000000
vn 0.000000 -1.000000 0.000000
vn -0.000002 -1.000000 -0.000000
vn -0.000002 -1.000000 -0.000000
vn -0.000002 -1.000000 -0.000000
vn -0.000002 -1.000000 -0.000000
vn 0.000000 1.000000 0.000000
vn 0.000000 1.000000 0.000000
vn 0.000000 1.000000 0.000000
vn 0.000000 1.000000 0.000000
vn 0.000000 0.000000 -1.000000
vn 0.000000 0.000000 -1.000000
vn 0.000000 0.000000 -1.000000
vn 0.000000 0.000000 -1.000000
vn -1.000000 0.000000 0.000000
vn -1.000000 0.000000 0.000000
vn -1.000000 0.000000 0.000000
vn -1.000000 0.000000 0.000000
vn 0.000000 0.000000 1.000000
vn 0.000000 0.000000 1.000000
vn 0.000000 0.000000 1.000000
vn 0.000000 0.000000 1.000000
vn 1.000000 0.000000 0.000000
vn 1.000000 0.000000 0.000000
vn 1.000000 0.000000 0.000000
vn 1.000000 0.000000 0.000000
vn -1.000000 0.000000 0.000001
vn -1.000000 0.000000 0.000001
vn -1.000000 0.000000 0.000001
vn -1.000000 0.000000 0.000001
vn -1.000000 0.000000 0.000005
vn -1.000000 0.000000 0.000005
vn -1.000000 0.000000 0.000005
vn -1.000000 0.000000 0.000005
vn 0.000000 -1.000000 -0.000000
vn 0.000000 -1.000000 -0.000000
vn 0.000000 -1.000000 -0.000000
vn 0.000000 -1.000000 -0.000000
vn 0.005764 0.000000 -0.999983
vn 0.005764 0.000000 -0.999983
vn 0.005764 0.000000 -0.999983
vn 0.005764 0.000000 -0.999983
vn -0.005763 0.000000 0.999983
vn -0.005763 0.000000 0.999983
vn -0.005763 0.000000 0.999983
vn -0.005763 0.000000 0.999983
vn -1.000000 0.000000 -0.000000
vn -1.000000 0.000000 -0.000000
vn -1.000000 0.000000 0.000000
vn -1.000000 0.000000 0.000000
vn 0.000000 0.000000 -1.000000
vn 0.000000 0.000000 -1.000000
vn 0.000000 0.000000 -1.000000
vn 0.000000 0.000000 -1.000000
vn 1.000000 0.000000 0.000000
vn 1.000000 0.000000 0.000000
vn 1.000000 0.000000 0.000000
vn 1.000000 0.000000 0.000000
vn 0.000000 0.000000 1.000000
vn 0.000000 0.000000 1.000000
vn 0.000000 0.000000 1.000000
vn 0.000000 0.000000 1.000000
vn 1.000000 0.000000 0.000000
vn 0.000000 0.000000 -1.000000
vn -1.000000 0.000000 0.000000
vn -1.000000 0.000000 0.000000
vn 0.000000 -1.000000 0.000000
vn 0.000000 -1.000000 0.000000
vn 0.000000 -1.000000 0.000000
vn 0.000000 -1.000000 0.000000
s off
g textureEditorIsolateSelectSet tiles_fishShop_displayWall tiles
usemtl lambert44SG
f 5/201/1 8/2/2 7/3/3 6/4/4
f 1/5/5 2/204/6 3/7/7 4/8/8
f 1/203/9 5/1/10 6/202/11 2/6/12
f 13/197/13 16/10/14 15/11/15 14/12/16
f 9/13/17 10/200/18 11/15/19 12/16/20
f 9/199/21 13/9/22 14/198/23 10/14/24
f 21/193/25 24/18/26 23/19/27 22/20/28
f 17/21/29 18/196/30 19/23/31 20/24/32
f 17/195/33 21/17/34 22/194/35 18/22/36
f 29/189/37 32/26/38 31/27/39 30/28/40
f 25/29/41 26/192/42 27/31/43 28/32/44
f 25/191/45 29/25/46 30/190/47 26/30/48
g tiles_fishShop_displayWall tiles
f 33/41/49 34/42/50 38/43/51 37/44/52
f 34/42/53 35/45/54 39/46/55 38/43/56
f 36/47/57 33/41/58 37/44/59 40/48/60
f 41/49/61 42/50/62 46/51/63 45/52/64
f 42/50/65 43/53/66 47/54/67 46/51/68
f 44/55/69 41/49/70 45/52/71 48/56/72
g textureEditorIsolateSelectSet tiles_fishShop_displayWall tiles
f 53/185/73 56/34/74 55/35/75 54/36/76
f 49/37/77 50/188/78 51/39/79 52/40/80
f 49/187/81 53/33/82 54/186/83 50/38/84
f 61/181/85 64/58/86 63/59/87 62/60/88
f 57/61/89 58/184/90 59/63/91 60/64/92
f 57/183/93 61/57/94 62/182/95 58/62/96
f 69/177/97 72/66/98 71/67/99 70/68/100
f 65/69/101 66/180/102 67/71/103 68/72/104
f 65/179/105 69/65/106 70/178/107 66/70/108
f 77/173/109 80/74/110 79/75/111 78/76/112
f 73/77/113 74/176/114 75/79/115 76/80/116
f 73/175/117 77/73/118 78/174/119 74/78/120
g tiles_fishShop_displayWall tiles
f 85/96/121 86/95/122 87/94/123 88/93/124
s 1
f 105/92/125 106/91/126 107/90/127 108/89/128
f 110/88/129 109/87/130 111/86/131 112/85/132
f 109/87/130 105/92/125 108/89/128 111/86/131
s off
f 81/97/133 82/98/134 90/99/135 89/100/136
f 82/98/137 86/109/138 91/110/139 90/99/140
f 86/109/141 85/115/142 92/116/143 91/110/144
f 84/149/145 83/150/146 93/151/147 94/152/148
f 88/153/149 87/154/150 96/155/151 95/156/152
f 87/154/153 84/149/154 94/152/155 96/155/156
f 85/115/157 88/153/158 95/156/159 92/116/160
s 2
f 89/111/161 90/112/162 98/113/163 97/114/164
f 90/112/162 91/117/165 99/118/166 98/113/163
f 91/117/165 92/119/167 100/120/168 99/118/166
f 94/121/169 93/122/170 101/123/171 102/124/172
f 95/125/173 96/126/174 104/127/175 103/128/176
f 96/126/174 94/121/169 102/124/172 104/127/175
f 92/119/167 95/125/173 103/128/176 100/120/168
s off
f 97/101/177 98/102/178 106/103/179 105/104/180
f 98/102/181 99/105/182 107/106/183 106/103/184
f 99/105/185 100/107/186 108/108/187 107/106/188
f 102/157/189 101/158/190 109/159/191 110/160/192
f 103/161/193 104/162/194 112/163/195 111/164/196
f 104/162/197 102/157/198 110/160/199 112/163/200
f 100/107/201 103/161/202 111/164/203 108/108/204
f 113/129/205 114/130/206 115/131/207 116/132/208
f 114/130/209 118/165/210 119/166/211 115/131/212
f 126/81/213 128/82/214 127/83/215 125/84/216
f 116/132/217 120/167/218 117/168/219 113/129/220
f 118/133/221 114/134/222 113/143/223 117/144/224
s 4
f 115/135/225 122/136/226 121/141/227 116/142/228
f 116/142/228 121/141/227 123/145/229 120/146/230
f 119/147/231 124/148/232 122/136/226 115/135/225
s off
f 122/137/233 126/138/234 125/139/235 121/140/236
f 121/140/237 125/139/238 127/169/239 123/170/240
f 124/171/241 128/172/242 126/138/243 122/137/244
f 130/205/245 129/206/246 131/207/247 132/208/248
f 133/209/249 130/205/250 132/210/251 134/211/252
f 134/212/253 135/213/254 136/214/255 133/209/256
f 135/215/257 131/216/258 129/206/259 136/214/260
f 135/217/261 134/218/262 132/208/263 131/207/264
f 133/209/265 136/214/266 129/206/267 130/205/268
