# This file uses centimeters as units for non-parametric coordinates.

mtllib Key.mtl
g default
v 4.699683 0.000000 -2.131269
v 1.008216 0.000000 -4.262539
v -2.683251 0.000000 -2.131270
v -2.683252 0.000000 2.131269
v 1.008215 0.000000 4.262539
v 4.699682 0.000000 2.131269
v 6.726162 2.163047 -3.301257
v 1.008216 2.163047 -6.602515
v -4.709729 2.163047 -3.301258
v -4.709731 2.163047 3.301257
v 1.008215 2.163047 6.602515
v 6.726161 2.163047 3.301257
v 8.740146 -0.000000 -4.464030
v 1.008217 -0.000000 -8.928063
v -6.723713 -0.000000 -4.464032
v -6.723715 -0.000000 4.464030
v 1.008215 -0.000000 8.928062
v 8.740145 -0.000000 4.464031
v 6.955854 -2.163047 -3.433869
v 1.008216 -2.163047 -6.867741
v -4.939422 -2.163047 -3.433871
v -4.939423 -2.163047 3.433870
v 1.008215 -2.163047 6.867741
v 6.955853 -2.163047 3.433870
v -25.683575 -0.952497 7.188492
v -25.683578 -0.952497 1.410308
v -25.683575 0.952497 7.188492
v -25.683578 0.952497 1.410308
v -28.558971 0.952497 7.188485
v -28.558975 0.952497 1.410309
v -28.558971 -0.952497 7.188485
v -28.558975 -0.952497 1.410309
v -31.337881 -0.952497 9.491666
v -31.337885 -0.952497 1.410308
v -31.337881 0.952497 9.491666
v -31.337885 0.952497 1.410308
v -34.213276 0.952497 9.491661
v -34.213280 0.952497 1.410309
v -34.213276 -0.952497 9.491661
v -34.213280 -0.952497 1.410309
v -34.259636 -1.505043 1.980174
v -5.161791 -1.505043 1.980174
v -34.259636 1.505043 1.980174
v -5.161791 1.505043 1.980174
v -34.259636 1.505043 -1.980174
v -5.161791 1.505043 -1.980174
v -34.259636 -1.505043 -1.980174
v -5.161791 -1.505043 -1.980174
vt 0.028221 0.887236
vt 0.026676 0.692550
vt 0.459796 0.841274
vt 0.550873 0.893059
vt 0.065693 0.714822
vt 0.551209 0.938077
vt 0.066861 0.864697
vt 0.421020 0.864029
vt 0.197191 0.982907
vt 0.459157 0.736654
vt 0.196930 0.938156
vt 0.419945 0.714368
vt 0.364636 0.884949
vt 0.326146 0.863115
vt 0.364018 0.690778
vt 0.324995 0.713488
vt 0.195030 0.594047
vt 0.195308 0.639026
vt 0.104992 0.737135
vt 0.105708 0.841902
vt 0.196695 0.893548
vt 0.286970 0.840734
vt 0.286522 0.736116
vt 0.195531 0.684163
vt 0.549328 0.683664
vt 0.549019 0.639069
vt 0.640406 0.735141
vt 0.679420 0.711997
vt 0.641311 0.839916
vt 0.680520 0.862132
vt 0.551537 0.983175
vt 0.382396 0.886758
vt 0.381419 0.692585
vt 0.548669 0.594296
vt 0.717814 0.689653
vt 0.719708 0.884358
vt 0.433644 0.026794
vt 0.624819 0.026794
vt 0.624819 0.126998
vt 0.433644 0.126537
vt 0.624819 0.227203
vt 0.433644 0.227664
vt 0.624819 0.327407
vt 0.433644 0.327407
vt 0.624819 0.427611
vt 0.433644 0.427611
vt 0.377366 0.228126
vt 0.377366 0.126075
vt 0.105768 0.051311
vt 0.332640 0.051311
vt 0.332640 0.140864
vt 0.105768 0.140452
vt 0.332640 0.230417
vt 0.105768 0.230829
vt 0.332640 0.319969
vt 0.105768 0.319969
vt 0.332640 0.409522
vt 0.105768 0.409522
vt 0.045488 0.231242
vt 0.045488 0.140039
vt 0.664853 0.631229
vt 0.664853 0.019213
vt 0.744123 0.019213
vt 0.743757 0.631229
vt 0.823393 0.019213
vt 0.823758 0.631229
vt 0.902662 0.019213
vt 0.902662 0.631229
vt 0.981932 0.019213
vt 0.981932 0.631229
vt 0.824123 0.699831
vt 0.743392 0.699831
vn -0.364885 0.683694 0.631998
vn -0.364885 0.683694 0.631998
vn -0.364885 0.683694 0.631998
vn -0.364885 0.683694 0.631998
vn 0.364884 0.683694 0.631999
vn 0.364884 0.683694 0.631999
vn 0.364885 0.683694 0.631999
vn 0.364884 0.683694 0.631999
vn 0.729769 0.683694 0.000000
vn 0.729769 0.683694 0.000000
vn 0.729769 0.683694 0.000000
vn 0.729769 0.683694 0.000000
vn 0.364885 0.683694 -0.631999
vn 0.364885 0.683694 -0.631999
vn 0.364885 0.683694 -0.631999
vn 0.364885 0.683694 -0.631999
vn -0.364885 0.683694 -0.631999
vn -0.364885 0.683694 -0.631999
vn -0.364885 0.683694 -0.631999
vn -0.364885 0.683694 -0.631999
vn -0.729769 0.683694 -0.000000
vn -0.729769 0.683694 -0.000000
vn -0.729769 0.683694 -0.000000
vn -0.729769 0.683694 -0.000000
vn 0.365938 0.681439 -0.633822
vn 0.365938 0.681439 -0.633822
vn 0.365938 0.681439 -0.633822
vn 0.365938 0.681439 -0.633822
vn -0.365937 0.681439 -0.633822
vn -0.365937 0.681439 -0.633822
vn -0.365937 0.681439 -0.633822
vn -0.365937 0.681439 -0.633822
vn -0.731875 0.681439 -0.000000
vn -0.731875 0.681439 -0.000000
vn -0.731875 0.681439 -0.000000
vn -0.731875 0.681439 -0.000000
vn -0.365938 0.681439 0.633822
vn -0.365938 0.681439 0.633822
vn -0.365938 0.681439 0.633822
vn -0.365938 0.681439 0.633822
vn 0.365937 0.681439 0.633822
vn 0.365937 0.681439 0.633822
vn 0.365937 0.681439 0.633822
vn 0.365938 0.681439 0.633822
vn 0.731875 0.681439 0.000000
vn 0.731875 0.681439 0.000000
vn 0.731875 0.681439 0.000000
vn 0.731875 0.681439 0.000000
vn 0.385706 -0.636336 -0.668062
vn 0.385706 -0.636336 -0.668062
vn 0.385706 -0.636336 -0.668062
vn 0.385706 -0.636336 -0.668062
vn -0.385706 -0.636336 -0.668063
vn -0.385706 -0.636336 -0.668063
vn -0.385706 -0.636336 -0.668063
vn -0.385706 -0.636336 -0.668063
vn -0.771412 -0.636336 -0.000000
vn -0.771412 -0.636336 -0.000000
vn -0.771412 -0.636336 -0.000000
vn -0.771412 -0.636336 -0.000000
vn -0.385706 -0.636336 0.668063
vn -0.385706 -0.636336 0.668063
vn -0.385706 -0.636336 0.668063
vn -0.385706 -0.636336 0.668063
vn 0.385706 -0.636336 0.668063
vn 0.385706 -0.636336 0.668063
vn 0.385706 -0.636336 0.668063
vn 0.385706 -0.636336 0.668063
vn 0.771412 -0.636336 0.000000
vn 0.771412 -0.636336 0.000000
vn 0.771412 -0.636336 0.000000
vn 0.771412 -0.636336 0.000000
vn -0.346026 -0.721847 0.599335
vn -0.346026 -0.721847 0.599335
vn -0.346026 -0.721847 0.599335
vn -0.346026 -0.721847 0.599335
vn 0.346026 -0.721847 0.599335
vn 0.346026 -0.721847 0.599335
vn 0.346026 -0.721847 0.599335
vn 0.346026 -0.721847 0.599335
vn 0.692052 -0.721847 0.000000
vn 0.692052 -0.721847 0.000000
vn 0.692053 -0.721847 0.000000
vn 0.692052 -0.721847 0.000000
vn 0.346026 -0.721847 -0.599335
vn 0.346026 -0.721847 -0.599335
vn 0.346026 -0.721847 -0.599335
vn 0.346026 -0.721847 -0.599335
vn -0.346026 -0.721847 -0.599335
vn -0.346026 -0.721847 -0.599335
vn -0.346026 -0.721847 -0.599335
vn -0.346026 -0.721847 -0.599335
vn -0.692053 -0.721847 -0.000000
vn -0.692053 -0.721847 -0.000000
vn -0.692053 -0.721847 -0.000000
vn -0.692053 -0.721847 -0.000000
vn 1.000000 0.000000 -0.000001
vn 1.000000 0.000000 -0.000001
vn 1.000000 0.000000 -0.000001
vn 1.000000 0.000000 -0.000001
vn 0.000000 1.000000 0.000000
vn 0.000000 1.000000 0.000000
vn 0.000000 1.000000 0.000000
vn 0.000000 1.000000 0.000000
vn -1.000000 0.000000 0.000001
vn -1.000000 0.000000 0.000001
vn -1.000000 0.000000 0.000001
vn -1.000000 0.000000 0.000001
vn 0.000000 -1.000000 0.000000
vn 0.000000 -1.000000 0.000000
vn 0.000000 -1.000000 0.000000
vn 0.000000 -1.000000 0.000000
vn -0.000002 0.000000 1.000000
vn -0.000002 0.000000 1.000000
vn -0.000002 0.000000 1.000000
vn -0.000002 0.000000 1.000000
vn 1.000000 0.000000 -0.000000
vn 1.000000 0.000000 -0.000000
vn 1.000000 0.000000 -0.000000
vn 1.000000 0.000000 -0.000000
vn 0.000000 1.000000 0.000000
vn 0.000000 1.000000 0.000000
vn 0.000000 1.000000 0.000000
vn 0.000000 1.000000 0.000000
vn -1.000000 0.000000 0.000000
vn -1.000000 0.000000 0.000000
vn -1.000000 0.000000 0.000000
vn -1.000000 0.000000 0.000000
vn 0.000000 -1.000000 0.000000
vn 0.000000 -1.000000 0.000000
vn 0.000000 -1.000000 0.000000
vn 0.000000 -1.000000 0.000000
vn -0.000002 0.000000 1.000000
vn -0.000002 0.000000 1.000000
vn -0.000002 0.000000 1.000000
vn -0.000002 0.000000 1.000000
vn 0.000000 0.000000 1.000000
vn 0.000000 0.000000 1.000000
vn 0.000000 0.000000 1.000000
vn 0.000000 0.000000 1.000000
vn 0.000000 1.000000 0.000000
vn 0.000000 1.000000 0.000000
vn 0.000000 1.000000 0.000000
vn 0.000000 1.000000 0.000000
vn 0.000000 0.000000 -1.000000
vn 0.000000 0.000000 -1.000000
vn 0.000000 0.000000 -1.000000
vn 0.000000 0.000000 -1.000000
vn 0.000000 -1.000000 0.000000
vn 0.000000 -1.000000 0.000000
vn 0.000000 -1.000000 0.000000
vn 0.000000 -1.000000 0.000000
vn -1.000000 0.000000 0.000000
vn -1.000000 0.000000 0.000000
vn -1.000000 0.000000 0.000000
vn -1.000000 0.000000 0.000000
s off
g Key
usemtl Boat_combined_lambert4SG
f 2/3/1 1/4/2 7/6/3 8/8/4
f 3/10/5 2/3/6 8/8/7 9/12/8
f 4/25/9 3/10/10 9/12/11 10/26/12
f 5/27/13 4/25/14 10/26/15 11/28/16
f 6/29/17 5/27/18 11/28/19 12/30/20
f 1/4/21 6/29/22 12/30/23 7/6/24
f 8/8/25 7/6/26 13/31/27 14/32/28
f 9/12/29 8/8/30 14/32/31 15/33/32
f 10/26/33 9/12/34 15/33/35 16/34/36
f 11/28/37 10/26/38 16/34/39 17/35/40
f 12/30/41 11/28/42 17/35/43 18/36/44
f 7/6/45 12/30/46 18/36/47 13/31/48
f 14/1/49 13/2/50 19/5/51 20/7/52
f 15/9/53 14/1/54 20/7/55 21/11/56
f 16/13/57 15/9/58 21/11/59 22/14/60
f 17/15/61 16/13/62 22/14/63 23/16/64
f 18/17/65 17/15/66 23/16/67 24/18/68
f 13/2/69 18/17/70 24/18/71 19/5/72
f 20/7/73 19/5/74 1/19/75 2/20/76
f 21/11/77 20/7/78 2/20/79 3/21/80
f 22/14/81 21/11/82 3/21/83 4/22/84
f 23/16/85 22/14/86 4/22/87 5/23/88
f 24/18/89 23/16/90 5/23/91 6/24/92
f 19/5/93 24/18/94 6/24/95 1/19/96
f 25/37/97 26/38/98 28/39/99 27/40/100
f 27/40/101 28/39/102 30/41/103 29/42/104
f 29/42/105 30/41/106 32/43/107 31/44/108
f 31/44/109 32/43/110 26/45/111 25/46/112
f 31/47/113 25/48/114 27/40/115 29/42/116
f 33/49/117 34/50/118 36/51/119 35/52/120
f 35/52/121 36/51/122 38/53/123 37/54/124
f 37/54/125 38/53/126 40/55/127 39/56/128
f 39/56/129 40/55/130 34/57/131 33/58/132
f 39/59/133 33/60/134 35/52/135 37/54/136
f 41/61/137 42/62/138 44/63/139 43/64/140
f 43/64/141 44/63/142 46/65/143 45/66/144
f 45/66/145 46/65/146 48/67/147 47/68/148
f 47/68/149 48/67/150 42/69/151 41/70/152
f 47/71/153 41/72/154 43/64/155 45/66/156
